<?xml version="1.0" standalone="no"?>
<!DOCTYPE svg PUBLIC "-//W3C//DTD SVG 20010904//EN"
 "http://www.w3.org/TR/2001/REC-SVG-20010904/DTD/svg10.dtd">
<svg version="1.0" xmlns="http://www.w3.org/2000/svg"
 width="512.000000pt" height="512.000000pt" viewBox="0 0 512.000000 512.000000"
 preserveAspectRatio="xMidYMid meet">

<g transform="translate(0.000000,512.000000) scale(0.100000,-0.100000)"
fill="#000000" stroke="none">
<path d="M2803 3563 c-43 -8 -60 -45 -62 -134 -1 -45 -2 -84 -3 -88 0 -3 0
-52 1 -109 1 -98 2 -104 27 -127 16 -15 39 -25 55 -25 29 0 34 -9 30 -51 -1
-9 8 -19 21 -22 26 -7 38 1 19 12 -10 6 -9 10 4 14 9 4 13 3 10 -3 -3 -6 -1
-10 5 -10 7 0 14 8 17 19 9 33 48 41 226 43 95 0 157 3 139 5 -26 3 -32 8 -28
20 4 9 -1 21 -9 27 -12 9 -14 17 -7 36 15 38 22 139 11 145 -5 4 -9 3 -8 -2 1
-4 -1 -15 -4 -23 -4 -8 -8 -35 -9 -60 -3 -43 -5 -46 -53 -70 -41 -20 -64 -25
-126 -24 -104 1 -164 29 -180 85 -9 28 -9 46 -2 62 10 22 8 25 -38 45 -53 22
-64 46 -26 57 21 7 50 19 124 51 18 7 31 19 29 26 -1 7 -1 10 1 7 6 -10 53 2
53 13 0 17 59 3 132 -31 37 -16 86 -32 110 -33 30 -2 43 -8 43 -18 0 -9 9 -15
21 -14 29 0 26 -35 -4 -43 -24 -6 -24 -8 -18 -76 3 -38 9 -74 12 -78 9 -14 24
0 24 22 0 11 4 18 9 14 5 -3 12 3 14 12 3 12 5 10 6 -7 0 -14 -6 -34 -14 -44
-22 -29 -19 -73 5 -86 16 -9 22 -6 36 16 14 21 18 57 21 190 l4 165 -31 44
c-26 37 -36 45 -73 49 -72 10 -421 2 -429 -9 -5 -7 -11 -7 -15 0 -9 11 -37 15
-70 8z m581 -52 c4 -5 -3 -7 -14 -4 -23 6 -26 13 -6 13 8 0 17 -4 20 -9z
m-604 -25 c0 -3 -4 -8 -10 -11 -5 -3 -10 -1 -10 4 0 6 5 11 10 11 6 0 10 -2
10 -4z m613 -13 c-3 -7 -6 -13 -8 -13 -2 0 -5 6 -8 13 -3 8 1 14 8 14 7 0 11
-6 8 -14z m-113 -17 c0 -2 -7 -7 -16 -10 -8 -3 -12 -2 -9 4 6 10 25 14 25 6z
m-470 -46 c0 -4 -6 -10 -14 -13 -12 -5 -14 2 -7 31 2 7 21 -10 21 -18z m581
-191 c-5 -13 -10 -19 -10 -12 -1 15 10 45 15 40 3 -2 0 -15 -5 -28z"/>
<path d="M3058 3363 c7 -3 16 -2 19 1 4 3 -2 6 -13 5 -11 0 -14 -3 -6 -6z"/>
<path d="M1645 3271 c-93 -16 -179 -82 -222 -169 l-28 -57 0 -510 c0 -500 0
-511 21 -556 55 -118 150 -178 294 -187 l90 -5 0 -148 c0 -133 2 -149 18 -158
10 -5 24 -6 31 -2 7 5 81 76 165 160 l153 152 289 0 c159 1 292 3 296 5 4 3
-4 20 -17 40 -61 89 -87 243 -61 361 42 199 170 341 354 396 l72 21 0 76 0 75
-35 19 c-48 26 -75 85 -75 164 0 34 -4 62 -8 62 -4 0 -32 -25 -62 -55 -80 -81
-120 -71 -120 27 0 41 -2 45 -35 57 -55 20 -79 62 -85 156 l-5 80 -495 1
c-272 1 -513 -1 -535 -5z m405 -221 c17 -17 20 -33 20 -120 0 -93 -1 -100 -20
-100 -16 0 -20 7 -20 38 -1 44 -58 119 -85 109 -22 -9 -19 -32 11 -77 14 -21
24 -47 22 -57 -6 -32 -41 -20 -71 25 -18 26 -33 39 -40 35 -8 -5 -6 -9 6 -11
9 -2 17 -8 17 -13 0 -5 -8 -9 -17 -10 -13 0 -11 -3 7 -10 58 -23 81 -75 38
-87 l-22 -5 22 -8 c29 -11 28 -29 0 -30 l-23 0 23 -9 c12 -5 22 -14 22 -20 0
-6 -10 -15 -22 -20 l-23 -9 23 0 c13 -1 22 -7 22 -16 0 -8 -10 -16 -22 -16
l-23 -2 23 -4 c12 -2 22 -11 22 -19 0 -8 -10 -15 -22 -15 -21 -2 -21 -2 -3 -6
11 -2 28 -15 38 -29 18 -24 18 -26 1 -45 -9 -10 -25 -19 -35 -19 -10 0 -20 -4
-23 -9 -4 -5 4 -7 15 -4 16 4 20 2 17 -8 -3 -8 -13 -13 -23 -12 -13 1 -14 -2
-6 -10 9 -9 17 -8 31 1 11 6 30 12 44 12 29 0 43 16 48 55 2 22 8 30 23 30 18
0 20 -8 23 -83 3 -78 1 -83 -24 -107 -46 -43 -116 -28 -162 34 -12 17 -29 31
-38 31 -28 0 -63 32 -75 68 -7 20 -27 50 -45 68 -29 27 -34 38 -34 79 0 31 8
63 25 94 13 25 27 62 30 82 3 19 14 45 25 57 11 12 26 38 33 59 8 26 22 43 43
53 18 8 45 30 62 48 25 27 37 32 76 32 33 0 52 -6 66 -20z m214 -14 c18 -18
42 -37 54 -40 27 -9 62 -52 62 -77 0 -10 11 -29 25 -43 16 -16 25 -37 25 -58
0 -18 7 -42 16 -53 8 -11 21 -41 29 -67 18 -60 5 -110 -35 -140 -19 -14 -30
-31 -30 -46 0 -27 -50 -82 -74 -82 -9 0 -36 -20 -59 -45 -37 -38 -50 -45 -81
-45 -28 0 -45 7 -67 30 -29 28 -30 32 -27 107 3 70 5 78 23 78 15 0 21 -8 23
-30 5 -39 19 -55 49 -55 13 0 34 -5 45 -11 13 -7 23 -8 30 -1 7 7 6 10 -3 9
-8 -1 -14 3 -14 8 0 6 6 9 13 9 6 -1 12 2 12 7 0 5 -11 9 -23 9 -13 0 -32 9
-42 20 -17 19 -17 20 6 45 13 13 31 25 39 25 8 1 5 5 -8 11 -25 10 -21 29 6
30 12 0 10 3 -6 10 -25 10 -21 29 6 30 12 0 11 3 -5 9 -13 5 -23 14 -23 20 0
6 10 15 23 20 l22 9 -22 0 c-14 1 -23 7 -23 16 0 9 9 15 23 16 l22 0 -22 9
c-13 5 -23 14 -23 21 0 21 42 70 57 67 23 -4 42 30 23 42 -16 10 -40 -5 -40
-24 0 -21 -48 -59 -64 -53 -24 9 -19 34 14 84 24 35 28 48 19 59 -17 21 -25
18 -61 -22 -23 -24 -35 -49 -38 -77 -3 -28 -10 -42 -20 -42 -12 0 -16 19 -18
99 -3 90 -1 101 19 122 17 18 33 24 67 24 38 0 50 -5 76 -34z m-636 -29 c4
-22 -27 -35 -38 -16 -10 15 7 42 24 36 6 -2 12 -11 14 -20z m985 -17 c82 -31
139 -101 153 -189 5 -33 3 -42 -10 -47 -23 -9 -27 -3 -37 53 -17 87 -106 163
-191 163 -25 0 -38 5 -38 13 0 34 45 36 123 7z m-883 -5 c7 -8 23 -15 36 -15
15 0 24 -6 24 -15 0 -10 -10 -15 -29 -15 -17 0 -33 -4 -36 -10 -11 -17 -54
-11 -65 9 -13 25 -13 27 6 45 20 20 48 20 64 1z m240 -36 c0 -5 -7 -9 -15 -9
-15 0 -20 12 -9 23 8 8 24 -1 24 -14z m260 1 c0 -5 -4 -10 -10 -10 -5 0 -10 5
-10 10 0 6 5 10 10 10 6 0 10 -4 10 -10z m374 -30 c23 -11 51 -35 64 -54 29
-42 40 -105 21 -116 -18 -12 -29 -3 -29 22 0 61 -67 128 -128 128 -32 0 -48
13 -37 30 10 16 66 11 109 -10z m-596 -2 c18 -18 16 -88 -3 -88 -9 0 -15 9
-15 23 0 12 -7 31 -15 41 -8 11 -15 23 -15 28 0 12 34 10 48 -4z m202 4 c0 -4
-6 -17 -14 -28 -8 -11 -16 -30 -18 -42 -5 -35 -23 -31 -26 6 -2 22 3 41 14 53
17 19 44 26 44 11z m-603 -23 c6 -6 38 -13 72 -16 50 -5 59 -8 50 -19 -7 -8
-31 -14 -61 -14 -28 0 -59 -7 -74 -16 -23 -16 -26 -15 -44 1 -23 20 -26 45 -8
63 15 15 50 16 65 1z m703 -20 c0 -5 -7 -9 -15 -9 -15 0 -20 12 -9 23 8 8 24
-1 24 -14z m291 -38 c34 -35 42 -95 12 -89 -10 2 -19 13 -21 25 -4 25 -29 49
-57 55 -11 2 -21 11 -23 21 -6 30 54 22 89 -12z m-47 -47 c19 -18 19 -20 6
-45 -18 -33 -70 -18 -70 21 0 19 19 40 36 40 7 0 20 -7 28 -16z m-459 -86 c14
-29 25 -59 25 -65 0 -18 -27 -16 -34 2 -3 8 -15 15 -26 15 -11 0 -23 -7 -26
-15 -8 -19 -34 -20 -34 -1 0 17 28 86 42 104 18 21 28 13 53 -40z m73 -4 c2
-52 -9 -81 -27 -70 -12 8 -15 108 -4 120 16 16 28 -4 31 -50z m532 -89 c0 -9
-7 -18 -16 -22 -18 -7 -39 11 -30 26 11 17 46 13 46 -4z m-80 -20 c10 -12 10
-21 2 -40 -13 -29 -52 -34 -72 -10 -7 8 -25 15 -41 15 -16 0 -29 5 -29 10 0 6
13 10 29 10 16 0 34 7 41 15 16 19 54 19 70 0z m-612 -75 c-4 -29 -30 -46 -54
-35 -13 5 -15 9 -6 12 7 3 19 18 28 35 18 34 38 26 32 -12z m182 14 c0 -7 9
-19 20 -26 11 -7 20 -16 20 -20 0 -13 -45 -9 -58 4 -13 13 -16 50 -6 61 10 9
24 -2 24 -19z m560 -34 c6 -10 7 -26 4 -34 -9 -22 -51 -31 -70 -15 -10 8 -45
13 -92 14 l-77 0 -5 -150 -5 -150 -88 -7 c-112 -8 -177 -23 -250 -57 -31 -15
-59 -25 -62 -23 -7 8 -6 258 1 265 3 3 21 -2 40 -11 30 -14 41 -14 77 -3 23 7
67 17 97 23 113 20 130 28 57 24 -56 -3 -68 -1 -65 11 3 16 69 42 108 43 23 1
24 1 7 14 -15 12 -16 18 -7 35 10 19 20 21 128 21 79 1 125 5 141 14 29 16 47
11 61 -14z m-1001 -11 c9 -27 8 -34 -7 -45 -15 -12 -14 -13 14 -14 41 0 104
-27 104 -43 0 -10 -18 -12 -67 -11 l-68 3 83 -15 c46 -8 99 -21 119 -29 45
-19 76 -19 113 0 16 8 31 12 34 7 6 -9 5 -254 -1 -264 -2 -5 -21 1 -41 11 -70
36 -167 62 -254 68 -47 3 -92 9 -99 14 -9 5 -14 53 -16 164 -3 87 -2 163 1
171 3 8 20 14 40 14 29 0 36 -4 45 -31z m-118 -81 c1 -7 2 -85 3 -173 l1 -160
196 -3 c185 -2 197 -4 202 -22 10 -38 100 -38 112 0 6 19 15 20 200 20 l195 0
2 173 c3 145 5 172 18 172 13 0 15 -28 18 -184 1 -104 -2 -188 -7 -195 -6 -7
-68 -10 -198 -9 -184 1 -189 1 -213 -22 -14 -12 -35 -26 -48 -30 -29 -8 -84
10 -108 36 -18 20 -28 21 -207 18 -157 -3 -190 -1 -197 11 -11 16 -14 339 -4
364 7 19 33 21 35 4z m247 -289 c28 -7 52 -15 52 -19 0 -3 -58 -7 -130 -8
l-130 -3 0 27 0 27 78 -6 c42 -3 101 -11 130 -18z m630 -1 c-3 -22 -6 -23
-130 -23 -71 0 -128 3 -128 6 0 4 26 11 58 17 31 7 66 13 77 16 11 2 44 4 73
5 50 1 53 0 50 -21z"/>
<path d="M1793 2813 c-4 -10 -1 -19 6 -21 7 -2 24 -17 39 -33 14 -16 27 -27
30 -25 2 3 -6 15 -17 27 -12 13 -19 30 -16 38 4 11 3 11 -9 2 -16 -13 -32 1
-21 19 3 6 4 10 0 10 -3 0 -9 -8 -12 -17z"/>
<path d="M1747 2696 c-8 -21 20 -43 35 -28 7 7 30 13 53 14 40 1 40 1 5 5 -19
3 -39 9 -44 14 -15 14 -43 11 -49 -5z m38 -5 c7 -12 -12 -24 -25 -16 -11 7 -4
25 10 25 5 0 11 -4 15 -9z"/>
<path d="M1810 2623 c-39 -27 -47 -58 -15 -58 14 0 21 8 25 28 3 17 16 35 30
42 14 8 18 14 10 14 -8 0 -31 -12 -50 -26z m-2 -34 c-2 -6 -8 -10 -13 -10 -5
0 -11 4 -13 10 -2 6 4 11 13 11 9 0 15 -5 13 -11z"/>
<path d="M1856 2581 c-10 -10 -13 -22 -8 -25 5 -3 14 6 20 19 14 30 11 31 -12
6z"/>
<path d="M2340 2809 c0 -11 -10 -35 -21 -52 l-22 -32 29 30 c27 27 41 75 22
75 -4 0 -8 -9 -8 -21z"/>
<path d="M2377 2703 c-5 -7 -25 -14 -45 -14 -29 -1 -24 -3 23 -10 36 -5 63 -5
69 1 5 5 1 7 -12 4 -14 -4 -21 -1 -24 13 -2 13 -6 15 -11 6z"/>
<path d="M2338 2622 c15 -15 33 -26 41 -23 9 2 12 -1 9 -10 -3 -8 -12 -13 -19
-11 -11 3 -11 1 -2 -8 6 -7 16 -9 22 -6 15 10 14 46 -1 46 -7 0 -24 9 -38 20
-36 29 -43 24 -12 -8z"/>
<path d="M2296 2590 c6 -8 13 -22 16 -30 3 -9 7 -10 11 -3 4 6 -3 19 -16 29
-12 11 -17 12 -11 4z"/>
<path d="M1680 2960 c0 -5 7 -10 15 -10 8 0 15 5 15 10 0 6 -7 10 -15 10 -8 0
-15 -4 -15 -10z"/>
<path d="M1560 2870 c0 -5 5 -10 10 -10 6 0 10 5 10 10 0 6 -4 10 -10 10 -5 0
-10 -4 -10 -10z"/>
<path d="M2570 2570 c0 -5 7 -10 15 -10 8 0 15 5 15 10 0 6 -7 10 -15 10 -8 0
-15 -4 -15 -10z"/>
<path d="M2700 2480 c0 -5 5 -10 10 -10 6 0 10 5 10 10 0 6 -4 10 -10 10 -5 0
-10 -4 -10 -10z"/>
<path d="M2370 2313 c-68 -10 -200 -46 -200 -54 0 -11 -6 -12 65 10 33 10 90
22 128 26 37 4 67 11 67 16 0 9 -14 10 -60 2z"/>
<path d="M2380 2253 c-67 -10 -201 -46 -207 -56 -6 -11 6 -9 97 16 30 8 81 18
113 22 31 3 55 11 52 16 -6 9 -10 9 -55 2z"/>
<path d="M1733 2313 c4 -6 39 -14 79 -17 40 -4 99 -16 132 -27 58 -20 91 -19
45 0 -67 29 -267 63 -256 44z"/>
<path d="M1735 2250 c-3 -5 21 -11 52 -15 32 -3 85 -13 118 -22 103 -26 108
-27 101 -15 -12 20 -261 68 -271 52z"/>
<path d="M2935 3270 c-3 -5 -3 -10 2 -10 4 0 2 -4 -5 -8 -18 -12 -4 -41 24
-48 34 -9 55 2 48 23 -5 17 -5 17 6 0 6 -9 8 -22 5 -27 -4 -6 17 -10 55 -10
54 0 62 3 70 23 7 17 9 18 9 5 1 -20 3 -21 25 -12 22 9 20 31 -5 44 -17 9 -23
8 -35 -7 -13 -16 -13 -16 -8 0 7 21 -5 22 -42 3 -15 -8 -31 -13 -36 -10 -5 3
-7 1 -6 -4 2 -6 -1 -10 -7 -11 -5 0 -10 6 -10 15 0 9 -15 22 -34 30 -40 17
-48 17 -56 4z"/>
<path d="M2857 2993 c-4 -3 -7 -13 -7 -20 0 -12 3 -12 15 1 8 8 15 17 15 20 0
8 -15 7 -23 -1z"/>
<path d="M3720 2705 c-11 -13 -8 -21 20 -50 37 -38 60 -34 60 11 0 45 -53 71
-80 39z"/>
<path d="M3557 2551 l-112 -110 34 -35 34 -35 104 99 c98 94 133 117 133 88 0
-7 -17 -29 -37 -50 -20 -21 -33 -38 -27 -38 18 0 84 67 84 86 0 18 -77 104
-93 104 -5 0 -59 -49 -120 -109z"/>
<path d="M2983 2443 c-20 -7 -15 -23 7 -23 11 0 20 4 20 9 0 13 -12 19 -27 14z"/>
<path d="M3292 2438 c6 -18 28 -21 28 -4 0 9 -7 16 -16 16 -9 0 -14 -5 -12
-12z"/>
<path d="M3420 2388 c0 -19 2 -20 10 -8 13 19 13 30 0 30 -5 0 -10 -10 -10
-22z"/>
<path d="M3041 2362 c-15 -11 -23 -31 -25 -57 -2 -22 -2 -34 1 -27 3 6 9 10
14 6 5 -3 9 0 9 5 0 6 14 11 30 11 23 0 33 -6 42 -26 11 -23 10 -29 -11 -45
-32 -26 -73 -20 -83 12 -5 18 -6 16 -4 -11 5 -51 17 -75 27 -58 7 10 9 10 9
-2 0 -12 17 -16 78 -18 122 -4 139 1 153 51 16 62 7 137 -21 159 -32 26 -188
26 -219 0z m229 -108 c-4 -23 -5 -49 -4 -58 2 -17 -11 -22 -20 -7 -4 5 0 12 6
14 7 3 4 6 -7 6 -29 1 -65 29 -65 50 0 27 22 42 60 39 l36 -2 -6 -42z m-62
-56 c3 -13 -7 -17 -56 -20 -54 -3 -59 -1 -57 17 1 11 3 21 4 23 0 2 25 2 53 0
40 -2 54 -7 56 -20z"/>
<path d="M3445 2360 c-3 -5 3 -10 14 -10 12 0 21 5 21 10 0 6 -6 10 -14 10 -8
0 -18 -4 -21 -10z"/>
<path d="M2950 2301 c-15 -28 -12 -67 5 -81 13 -11 15 -5 15 44 0 60 -3 67
-20 37z"/>
<path d="M3330 2270 c0 -37 4 -50 13 -47 7 2 12 21 12 47 0 26 -5 45 -12 48
-9 2 -13 -11 -13 -48z"/>
<path d="M3140 2110 c0 -5 6 -10 14 -10 8 0 18 5 21 10 3 6 -3 10 -14 10 -12
0 -21 -4 -21 -10z"/>
<path d="M3230 2110 c0 -19 -54 -60 -75 -56 -39 8 -75 26 -75 37 0 30 -14 -6
-20 -49 l-6 -48 35 18 c43 22 71 23 116 4 l35 -15 0 60 c0 32 -2 59 -5 59 -3
0 -5 -4 -5 -10z"/>
<path d="M2985 2080 c-17 -19 -16 -20 9 -50 l26 -32 0 51 c0 55 -7 62 -35 31z"/>
<path d="M3290 2060 c0 -38 1 -39 19 -24 20 18 18 49 -5 58 -11 4 -14 -4 -14
-34z"/>
<path d="M2880 2003 c-40 -16 -53 -78 -22 -106 25 -23 64 -21 90 3 22 21 31
70 12 70 -5 0 -10 6 -10 14 0 19 -40 30 -70 19z"/>
<path d="M2832 1830 c-33 -14 -38 -37 -13 -64 17 -19 33 -23 84 -25 56 -2 65
1 85 24 12 14 22 27 22 30 0 3 -15 14 -32 25 -35 21 -105 26 -146 10z"/>
</g>
</svg>
